<svg version="1.0" xmlns="http://www.w3.org/2000/svg"
 width="517.000000pt" height="652.000000pt" viewBox="0 0 517.000000 652.000000"
 preserveAspectRatio="xMidYMid meet">

<g transform="translate(0.000000,652.000000) scale(0.100000,-0.100000)"
fill="#000000" stroke="none">
<path d="M2577 4820 c-264 -45 -420 -193 -495 -469 -24 -89 -26 -111 -26 -316
0 -246 10 -305 76 -441 39 -81 150 -199 214 -228 l42 -18 5 -146 c5 -173 22
-234 78 -292 40 -41 106 -80 135 -80 11 0 5 8 -16 23 -62 41 -81 97 -93 270
-6 84 -8 160 -5 168 5 12 16 14 50 10 l43 -6 6 -145 c7 -169 20 -212 82 -265
73 -62 167 -69 255 -19 41 24 62 65 25 49 -10 -4 -43 -10 -73 -12 -76 -6 -116
18 -153 88 -26 50 -28 64 -30 179 l-2 125 60 7 c33 4 111 24 173 43 l112 36 0
359 0 360 -52 0 c-29 0 -90 3 -135 7 -96 7 -107 -4 -38 -37 32 -16 53 -35 73
-68 l27 -47 0 -217 c0 -204 -1 -218 -21 -245 -29 -39 -89 -70 -151 -79 l-53
-7 0 222 0 221 -50 0 -50 0 -2 -222 -3 -223 -25 3 c-14 1 -36 5 -49 8 l-24 5
8 215 7 214 -56 0 -56 0 -2 -192 -3 -193 -46 43 c-60 54 -113 156 -141 268
-19 77 -22 115 -22 284 0 168 3 206 22 272 44 159 120 268 230 326 84 45 160
62 277 62 246 0 399 -99 468 -302 4 -10 14 -18 23 -18 15 0 16 9 11 83 -4 45
-7 123 -7 174 l0 91 -67 20 c-192 56 -408 76 -556 52z"/>
<path d="M2020 4592 c-120 -124 -181 -255 -200 -433 -18 -161 7 -315 72 -444
43 -86 129 -193 172 -217 17 -9 16 -5 -6 33 -72 124 -110 309 -109 534 0 218
36 375 120 531 22 41 37 74 34 74 -4 0 -41 -35 -83 -78z"/>
<path d="M2540 4425 c-30 -30 -32 -37 -20 -49 8 -7 53 -48 99 -90 l83 -78 34
33 34 33 -62 64 c-35 35 -79 76 -99 92 l-36 29 -33 -34z"/>
<path d="M2409 4284 c-33 -34 -33 -34 -14 -53 11 -10 55 -51 98 -91 l79 -72
34 33 34 33 -42 44 c-24 24 -68 66 -99 92 l-56 49 -34 -35z"/>
<path d="M3218 4103 l-78 -4 0 -340 c0 -311 1 -341 16 -335 9 4 36 11 60 17
l44 11 0 222 c0 266 8 307 76 375 24 24 44 48 44 52 0 5 -19 8 -42 7 -24 -1
-78 -4 -120 -5z"/>
</g>
</svg>