<svg version="1.0" xmlns="http://www.w3.org/2000/svg"
 width="1978.000000pt" height="576.000000pt" viewBox="0 0 1978.000000 576.000000"
 preserveAspectRatio="xMidYMid meet">

<g transform="translate(0.000000,576.000000) scale(0.100000,-0.100000)"
fill="#000000" stroke="none">
<path d="M3041 4118 c-6 -95 -14 -188 -17 -205 -3 -18 -1 -33 5 -33 5 0 31 65
57 144 46 139 49 145 78 150 17 4 153 9 301 11 229 5 285 3 370 -12 l100 -18
-3 -40 c-6 -77 -72 -314 -242 -868 -182 -597 -213 -688 -259 -757 -46 -69 -63
-86 -111 -111 -60 -31 -34 -36 73 -14 165 33 275 118 354 272 54 105 67 145
259 773 91 300 190 610 221 690 30 80 57 153 60 163 5 17 -20 18 -578 16 -321
-1 -600 2 -620 6 l-36 7 -12 -174z m1069 104 c0 -21 -433 -1447 -467 -1535
-14 -37 -43 -94 -64 -127 -39 -57 -147 -166 -156 -156 -3 2 10 26 27 51 55 80
94 194 317 928 118 392 225 742 236 780 l21 67 43 0 c24 0 43 -4 43 -8z"/>
<path d="M8890 4284 c-118 -21 -154 -29 -214 -50 -302 -105 -508 -334 -598
-662 -32 -115 -32 -374 -1 -487 78 -286 262 -493 534 -601 163 -65 419 -89
635 -60 134 18 244 46 410 108 l111 40 6 147 c3 80 12 192 18 248 l12 101 98
23 c55 12 99 26 99 31 0 4 -189 8 -420 8 -231 0 -420 -4 -420 -8 0 -5 62 -17
138 -26 208 -27 189 -18 201 -90 21 -119 8 -445 -18 -446 -3 0 -49 -7 -101
-15 -186 -29 -365 -17 -500 34 -141 53 -307 182 -389 304 -49 73 -98 177 -123
264 -33 113 -33 349 0 473 100 376 382 580 801 580 112 0 309 -21 408 -43 69
-16 69 -16 115 -179 18 -65 36 -118 40 -118 9 0 9 196 -1 325 l-6 90 -110 0
c-60 0 -243 3 -405 7 -162 4 -306 5 -320 2z m280 -28 c8 -1 -21 -6 -65 -9
-145 -12 -288 -38 -371 -69 -240 -86 -414 -263 -492 -502 -119 -359 -22 -757
240 -981 161 -138 340 -205 602 -225 65 -5 120 -11 122 -13 3 -2 -27 -7 -66
-10 -97 -8 -274 8 -378 34 -331 82 -581 341 -648 669 -24 122 -15 322 20 443
69 233 190 402 373 521 76 49 206 105 290 125 88 21 298 31 373 17z m460
-1410 l0 -234 -24 -6 c-13 -3 -31 -9 -40 -12 -14 -6 -16 19 -16 240 l0 246 40
0 40 0 0 -234z"/>
<path d="M12990 4283 c-184 -30 -294 -67 -420 -143 -224 -135 -365 -325 -436
-590 -26 -93 -25 -310 0 -405 49 -181 135 -333 258 -451 216 -209 454 -293
792 -281 208 7 332 41 502 138 121 69 271 220 343 344 258 446 81 1029 -385
1272 -119 62 -206 89 -339 108 -93 14 -257 18 -315 8z m-2 -53 c-121 -25 -181
-46 -266 -91 -241 -128 -390 -334 -448 -619 -22 -111 -15 -303 15 -414 67
-241 252 -463 472 -565 57 -27 130 -49 269 -80 41 -9 38 -10 -30 -6 -360 21
-705 310 -812 682 -19 65 -23 101 -22 218 0 122 4 151 27 228 47 152 113 263
231 385 160 166 402 281 591 280 l60 0 -87 -18z m364 4 c305 -70 539 -300 619
-612 26 -102 36 -320 20 -431 -33 -225 -137 -420 -295 -553 -123 -103 -294
-175 -439 -184 -79 -4 -68 1 67 31 127 28 245 94 342 191 67 67 89 97 132 185
88 177 120 364 102 595 -23 287 -115 484 -293 627 -98 79 -179 114 -335 147
-80 17 -83 19 -39 19 26 1 80 -6 119 -15z m-27 -59 c236 -63 423 -263 497
-530 19 -71 22 -105 22 -300 0 -212 -1 -223 -27 -310 -47 -149 -99 -238 -196
-335 -93 -92 -171 -140 -296 -181 -57 -19 -91 -23 -185 -23 -136 0 -210 18
-322 76 -185 96 -324 279 -378 498 -44 178 -37 445 17 610 89 272 266 444 523
506 70 17 263 11 345 -11z"/>
<path d="M2108 4264 c-201 -48 -328 -215 -328 -430 0 -97 22 -130 34 -52 17
104 114 226 217 273 32 14 86 28 122 32 158 14 323 -91 400 -255 29 -62 31
-75 31 -172 0 -88 -4 -117 -26 -178 -90 -250 -410 -605 -815 -905 -115 -84
-123 -92 -123 -124 l0 -33 624 0 624 0 6 48 c35 276 47 386 44 400 -2 9 -17
-17 -32 -58 -16 -41 -47 -122 -70 -180 l-41 -105 -70 -13 c-90 -17 -519 -19
-635 -4 -47 7 -118 19 -157 28 l-73 16 158 119 c502 382 714 615 807 892 106
317 -60 616 -391 702 -72 19 -228 18 -306 -1z m265 -109 c181 -62 314 -217
336 -394 27 -215 -69 -425 -307 -673 -128 -133 -351 -330 -365 -321 -5 3 60
72 145 153 282 271 410 468 439 677 35 251 -132 486 -371 522 -77 12 -169 1
-232 -27 -49 -22 -137 -97 -157 -136 -8 -14 -18 -26 -23 -26 -15 0 43 84 95
137 58 60 138 100 224 112 75 10 132 4 216 -24z"/>
<path d="M16510 4263 c0 -5 68 -18 151 -30 82 -11 152 -23 155 -26 35 -35 56
-822 34 -1302 -9 -194 -27 -415 -34 -422 -2 -2 -71 -13 -154 -25 -84 -12 -152
-25 -152 -30 0 -10 937 -11 944 0 3 5 -63 18 -147 31 -83 12 -152 23 -154 24
-26 27 -44 1152 -24 1491 7 105 15 194 19 198 4 4 47 12 96 17 222 26 367 -45
463 -225 49 -93 66 -172 61 -294 -4 -92 -8 -113 -36 -171 -56 -117 -173 -204
-321 -239 -30 -7 -99 -16 -155 -19 l-101 -7 60 -9 c104 -16 322 -11 395 9 182
50 337 187 400 353 15 37 24 90 27 148 12 207 -81 376 -252 461 -132 65 -151
67 -742 71 -298 3 -533 1 -533 -4z m1005 -34 c167 -31 300 -145 356 -307 45
-131 44 -283 -2 -406 -26 -71 -124 -179 -198 -219 -79 -44 -261 -84 -261 -58
0 4 24 13 53 19 218 44 347 210 347 446 0 244 -126 433 -331 497 -33 10 -74
19 -89 19 -16 0 -32 5 -35 10 -8 13 85 13 160 -1z m-535 -884 l0 -875 -45 0
-45 0 0 875 0 875 45 0 45 0 0 -875z"/>
<path d="M10095 4248 c28 -5 97 -17 155 -26 l105 -17 7 -40 c41 -247 33 -1566
-11 -1671 -8 -18 -26 -23 -143 -39 -73 -10 -140 -22 -148 -26 -8 -5 199 -8
460 -8 261 0 468 3 460 8 -8 4 -74 16 -146 26 -73 10 -137 21 -144 25 -22 13
-31 125 -37 442 -5 304 -5 318 13 325 11 5 62 8 114 8 160 0 203 -35 402 -320
273 -393 300 -426 384 -468 73 -36 140 -47 292 -46 l137 0 -57 18 c-120 39
-175 98 -415 450 -181 264 -259 357 -337 401 l-49 28 44 12 c115 31 236 127
285 226 134 273 -69 620 -404 689 -60 12 -160 15 -545 14 -320 -1 -456 -5
-422 -11z m906 -38 c224 -70 360 -244 360 -462 0 -127 -30 -206 -112 -293 -49
-52 -147 -111 -171 -103 -8 3 0 11 18 21 51 26 130 121 154 185 46 121 34 265
-32 399 -36 73 -137 175 -208 210 -57 28 -153 53 -202 53 -22 0 -38 5 -38 11
0 18 154 3 231 -21z m-491 -870 l0 -870 -45 0 -45 0 0 870 0 870 45 0 45 0 0
-870z m455 807 c188 -90 296 -290 265 -491 -27 -172 -128 -279 -298 -315 -63
-13 -251 -14 -271 -2 -32 21 -11 821 22 844 7 4 55 6 109 4 86 -3 104 -8 173
-40z m73 -897 c96 -43 127 -80 344 -390 165 -237 225 -311 292 -356 l51 -34
-40 0 c-121 1 -199 81 -486 500 -73 107 -155 219 -182 248 -53 55 -48 63 21
32z"/>
<path d="M14281 4255 c3 -2 60 -13 128 -24 68 -11 125 -21 126 -23 15 -15 29
-327 35 -803 4 -339 11 -585 18 -608 40 -147 161 -270 322 -329 199 -73 589
-88 819 -31 199 49 341 165 401 331 24 67 24 68 31 607 4 297 12 592 18 655 6
63 11 124 11 135 1 38 17 46 136 66 65 11 121 22 123 25 2 2 -202 4 -455 3
-252 0 -454 -2 -449 -4 6 -3 79 -13 163 -24 84 -10 156 -22 159 -25 41 -41 59
-1244 21 -1371 -56 -186 -167 -287 -365 -331 -95 -21 -275 -15 -374 14 -166
47 -279 170 -310 338 -22 115 1 1327 25 1351 2 2 74 13 162 24 87 11 160 22
163 25 2 2 -202 4 -454 4 -252 0 -456 -2 -454 -5z m411 -697 c5 -726 4 -717
66 -832 33 -63 111 -143 175 -180 67 -40 168 -72 266 -85 98 -13 115 -21 45
-21 -74 0 -229 28 -306 54 -189 66 -304 205 -328 396 -11 96 -13 566 -3 1023
l6 307 38 0 38 0 3 -662z m1338 20 c-1 -706 -3 -745 -59 -859 -16 -35 -45 -82
-62 -103 -74 -88 -236 -160 -388 -173 -93 -7 -88 4 10 23 83 16 183 60 241
106 53 42 101 118 135 215 l28 78 3 678 3 677 44 0 45 0 0 -642z"/>
</g>
</svg>